<svg width="518" height="158" fill="none" xmlns="http://www.w3.org/2000/svg"><g fill="#fff" clip-path="url(#a)"><path d="M78.62 23.45V0C35.2 0 0 35.2 0 78.62s35.2 78.62 78.62 78.62v-23.45c-30.47 0-55.17-24.7-55.17-55.17 0-30.47 24.7-55.17 55.17-55.17Z"/><path d="M133.79 78.62c0 30.47-24.7 55.17-55.17 55.17v-23.45c17.52 0 31.72-14.2 31.72-31.72S96.14 46.9 78.62 46.9V23.45c30.47 0 55.17 24.7 55.17 55.17Z"/><path d="M78.62 46.9v63.45c-17.52 0-31.72-14.2-31.72-31.72s14.2-31.72 31.72-31.72v-.01Zm280.19 24.21a32.256 32.256 0 0 0-12.38-13.27c-5.31-3.15-11.53-4.72-18.66-4.72-7.13 0-13.35 1.57-18.66 4.72a32.404 32.404 0 0 0-12.39 13.27c-2.94 5.7-4.4 12.36-4.39 19.97.02 7.61 1.48 14.24 4.39 19.86 2.78 5.5 7.08 10.08 12.39 13.22 5.32 3.15 11.54 4.72 18.66 4.72 7.12 0 13.34-1.58 18.66-4.72 5.31-3.13 9.6-7.72 12.38-13.22 2.96-5.67 4.44-12.29 4.44-19.86s-1.48-14.23-4.44-19.97Zm-12.18 32.86a20.968 20.968 0 0 1-6.95 9.4c-3.14 2.35-7.09 3.53-11.86 3.53s-8.74-1.18-11.92-3.53a20.931 20.931 0 0 1-6.99-9.4 37.803 37.803 0 0 1 0-25.86c1.39-3.76 3.81-7.04 6.99-9.47 3.16-2.41 7.12-3.58 11.92-3.58s8.72 1.18 11.86 3.58c3.16 2.44 5.58 5.72 6.95 9.47a37.803 37.803 0 0 1 0 25.86Zm93.14-32.86a32.256 32.256 0 0 0-12.38-13.27c-5.31-3.15-11.53-4.72-18.66-4.72-7.13 0-13.35 1.57-18.66 4.72a32.404 32.404 0 0 0-12.39 13.27c-2.94 5.7-4.4 12.36-4.39 19.97.02 7.61 1.48 14.24 4.39 19.86 2.78 5.5 7.08 10.08 12.39 13.22 5.32 3.15 11.54 4.72 18.66 4.72 7.12 0 13.34-1.58 18.66-4.72 5.31-3.13 9.6-7.72 12.38-13.22 2.96-5.67 4.44-12.29 4.44-19.86s-1.48-14.23-4.44-19.97Zm-12.18 32.86a20.968 20.968 0 0 1-6.95 9.4c-3.14 2.35-7.09 3.53-11.86 3.53s-8.74-1.18-11.92-3.53a20.931 20.931 0 0 1-6.99-9.4 37.803 37.803 0 0 1 0-25.86c1.39-3.76 3.81-7.04 6.99-9.47 3.15-2.41 7.12-3.58 11.92-3.58s8.72 1.18 11.86 3.58c3.16 2.44 5.57 5.72 6.95 9.47a37.803 37.803 0 0 1 0 25.86Zm64.94-38.4v-11.5h-15.86v-5.91c0-3.26.73-5.75 2.2-7.47 1.5-1.72 3.99-2.59 7.47-2.59 1.5 0 2.78.14 3.83.43 1.05.26 1.92.48 2.59.67l3.35-11.59c-.99-.38-2.51-.8-4.55-1.25-2.04-.48-4.5-.72-7.38-.72-3.9 0-7.51.77-10.83 2.3-3.32 1.5-5.99 3.78-8 6.85-2.01 3.03-3.02 6.85-3.02 11.45v7.83h-11.4v11.5h11.4v62.09h14.32V65.57H492.53Zm-324.08 62.09V29.54h34.97c7.63 0 13.96 1.39 18.97 4.17 5.01 2.78 8.77 6.58 11.26 11.4 2.49 4.79 3.74 10.19 3.74 16.19 0 6-1.26 11.47-3.78 16.29-2.49 4.79-6.26 8.59-11.31 11.4-5.01 2.78-11.32 4.17-18.93 4.17h-10.96V80.61h9.62c4.82 0 8.74-.83 11.74-2.49 3-1.69 5.21-3.99 6.61-6.9 1.4-2.91 2.11-6.21 2.11-9.92s-.7-6.99-2.11-9.87c-1.41-2.87-3.63-5.13-6.66-6.76-3-1.63-6.96-2.44-11.88-2.44h-18.59v85.43h-14.8Zm80.98 0V54.07h13.85v11.69h.77c1.34-3.96 3.71-7.07 7.09-9.34 3.42-2.3 7.28-3.45 11.59-3.45.89 0 1.95.03 3.16.1 1.25.06 2.22.14 2.92.24v13.7c-.58-.16-1.6-.34-3.07-.53a29.78 29.78 0 0 0-4.41-.34c-3.39 0-6.4.72-9.06 2.16-2.62 1.41-4.7 3.37-6.23 5.89-1.53 2.49-2.3 5.33-2.3 8.53v44.94h-14.33.02Zm250.75-10.16c-.08-.67-.4-1.19-.97-1.56-.57-.37-1.26-.56-2.08-.56-.6 0-1.13.1-1.57.29-.45.19-.8.46-1.05.8s-.37.73-.37 1.16c0 .36.09.67.26.93s.4.47.67.64c.27.17.56.31.86.42.3.11.58.2.83.26l1.38.37c.35.09.75.22 1.18.38.44.16.85.38 1.25.67.4.28.73.64.99 1.08.26.44.39.97.39 1.61 0 .73-.19 1.4-.57 1.99-.38.59-.94 1.06-1.67 1.41-.73.35-1.62.52-2.66.52-.97 0-1.81-.16-2.52-.47-.71-.31-1.27-.75-1.67-1.31-.4-.56-.63-1.21-.69-1.96h1.7c.04.51.22.93.52 1.27.3.34.69.58 1.15.74.46.16.97.24 1.51.24.63 0 1.19-.1 1.69-.31s.89-.49 1.19-.86c.29-.37.44-.8.44-1.3 0-.45-.13-.82-.38-1.1-.25-.28-.58-.51-.99-.69-.41-.18-.86-.33-1.33-.46l-1.67-.48c-1.06-.31-1.9-.74-2.52-1.31-.62-.57-.93-1.31-.93-2.22 0-.76.21-1.42.62-1.99.41-.57.97-1.01 1.67-1.33.7-.32 1.48-.47 2.35-.47.87 0 1.65.16 2.33.47.68.31 1.22.74 1.62 1.28.4.54.61 1.15.63 1.84h-1.59v.01Zm4.48-3.39h1.96l4.61 11.27h.16l4.61-11.27h1.96v13.58h-1.54v-10.31h-.13l-4.24 10.31h-1.48l-4.24-10.31h-.13v10.31h-1.54v-13.58Z"/></g><defs><clipPath id="a"><path fill="#fff" d="M0 0h517.97v157.24H0z"/></clipPath></defs></svg>