<svg width="155" height="158" fill="none" xmlns="http://www.w3.org/2000/svg"><g clip-path="url(#a)" fill="#040919"><path d="M78.6 23.5V0C35.2 0 0 35.2 0 78.6c0 43.4 35.2 78.6 78.6 78.6v-23.4c-30.5 0-55.2-24.7-55.2-55.2 0-30.5 24.8-55.1 55.2-55.1Zm55.2 55.1c0 30.5-24.7 55.2-55.2 55.2v-23.4c17.5 0 31.7-14.2 31.7-31.7S96.1 46.9 78.6 46.9V23.5c30.5 0 55.2 24.7 55.2 55.1Z"/><path d="M78.6 46.9v63.5c-17.5 0-31.7-14.2-31.7-31.7s14.2-31.8 31.7-31.8Zm61.6 78.5c-.1-.6-.3-1-.8-1.3-.5-.3-1.1-.5-1.7-.5-.5 0-.9.1-1.3.2-.4.2-.7.4-.8.7-.2.2-.3.6-.3 1 0 .3.1.6.2.7.2.2.3.4.6.5.2.2.5.2.7.3.2.1.5.2.7.2l1.1.3c.3.1.7.2 1 .3.3.2.7.3 1 .6.3.2.6.5.8.9.2.4.3.8.3 1.3 0 .6-.2 1.1-.5 1.6s-.7.9-1.4 1.1c-.7.2-1.3.4-2.2.4-.8 0-1.5-.2-2.1-.4-.6-.2-1.1-.7-1.4-1.1-.3-.4-.5-1-.6-1.6h1.4c0 .4.2.7.4 1.1.2.3.6.5.9.6.3.1.8.2 1.2.2.5 0 1-.1 1.4-.2.4-.2.7-.4 1-.7.3-.3.3-.7.3-1.1 0-.3-.1-.7-.3-.9-.2-.2-.5-.4-.8-.6-.3-.2-.7-.2-1.1-.4l-1.4-.4c-.9-.2-1.6-.6-2.1-1.1-.5-.5-.7-1.1-.7-1.8s.2-1.1.5-1.6.8-.8 1.4-1.1c.6-.3 1.2-.4 2-.4.7 0 1.3.2 1.9.4.6.2 1 .6 1.3 1.1.3.5.5 1 .5 1.5l-1.1.2Zm3.7-2.8h1.6l3.8 9.3h.2l3.8-9.3h1.6v11.2h-1.2v-8.5h-.1l-3.4 8.5H149l-3.4-8.5h-.1v8.5h-1.2l-.4-11.2Z"/></g><defs><clipPath id="a"><path fill="#fff" d="M0 0h154.9v157.2H0z"/></clipPath></defs></svg>